<?xml version="1.0" standalone="no"?>
<!DOCTYPE svg PUBLIC "-//W3C//DTD SVG 20010904//EN"
 "http://www.w3.org/TR/2001/REC-SVG-20010904/DTD/svg10.dtd">
<svg version="1.0" xmlns="http://www.w3.org/2000/svg"
 width="900.000000pt" height="900.000000pt" viewBox="0 0 900.000000 900.000000"
 preserveAspectRatio="xMidYMid meet">
<metadata>
Created by potrace 1.14, written by Peter Selinger 2001-2017
</metadata>
<g transform="translate(0.000000,900.000000) scale(0.100000,-0.100000)"
fill="#000000" stroke="none">
<path d="M0 4500 l0 -4500 1019 0 1018 0 8 83 c7 83 51 233 85 294 11 18 27
63 36 100 9 37 20 75 24 83 24 50 28 82 15 114 -8 18 -20 37 -27 43 -15 12
-84 36 -113 39 -11 1 -45 7 -76 13 -30 6 -86 12 -125 14 -62 2 -69 4 -72 24
-3 18 -8 21 -36 16 -45 -7 -64 16 -48 61 7 18 12 49 12 69 0 31 4 38 25 43 31
8 33 30 4 37 -20 5 -21 11 -16 50 7 47 -4 67 -35 67 -24 0 -54 -46 -40 -63 16
-20 -4 -56 -35 -63 -61 -13 -60 -12 -59 -65 1 -45 5 -53 28 -65 15 -8 32 -23
38 -33 5 -11 20 -21 32 -23 16 -2 24 -11 26 -28 2 -21 -3 -27 -35 -39 -21 -7
-69 -15 -108 -18 -62 -3 -76 0 -120 24 -114 64 -126 167 -31 277 39 46 61 57
68 34 3 -8 10 -4 17 10 19 37 82 102 97 102 7 0 27 13 44 30 26 25 34 28 57
19 22 -8 30 -6 50 13 13 12 22 31 21 42 -2 13 4 22 16 24 20 4 96 -26 96 -39
0 -4 10 -9 22 -11 15 -2 25 -13 32 -36 7 -25 13 -31 25 -26 34 15 92 16 114 2
13 -9 59 -17 112 -21 107 -6 313 7 328 22 6 6 25 11 42 11 26 0 78 17 230 74
17 6 46 21 66 33 20 13 39 23 43 23 3 0 43 25 89 55 120 80 128 86 177 125 25
20 56 44 70 53 14 10 50 37 80 62 47 38 137 105 284 211 138 100 282 190 369
231 l48 23 -28 35 c-25 32 -151 132 -297 237 -129 93 -257 178 -266 178 -5 0
-10 3 -10 8 0 4 -17 16 -37 27 -20 11 -42 25 -48 30 -6 6 -18 15 -27 20 -9 6
-40 26 -69 46 -30 21 -106 64 -169 97 -63 33 -142 75 -175 94 -118 67 -245
163 -245 185 0 13 -23 18 -66 14 -32 -2 -68 43 -69 89 0 22 -4 42 -8 46 -4 4
-7 16 -7 26 0 10 -4 18 -10 18 -5 0 -10 -7 -10 -15 0 -25 -23 -65 -37 -65 -8
0 -54 29 -102 65 -49 36 -93 65 -98 65 -5 0 -22 13 -37 29 -30 31 -54 37 -186
47 -66 5 -82 3 -131 -19 -69 -30 -117 -65 -211 -151 -81 -75 -155 -126 -209
-144 -43 -15 -135 -16 -144 -2 -3 6 -14 10 -24 10 -35 0 -137 80 -256 201
-108 110 -188 174 -238 192 -54 20 62 140 163 169 78 22 162 41 215 48 96 12
173 28 194 39 11 6 28 11 39 11 51 0 147 78 164 134 14 47 8 146 -11 181 -25
46 -81 108 -139 151 -109 82 -191 181 -192 231 0 22 70 92 125 123 72 41 153
66 265 80 52 6 118 16 147 22 115 24 210 -12 258 -97 24 -45 55 -168 55 -223
0 -20 -5 -72 -11 -116 -12 -80 -12 -82 16 -131 16 -27 33 -59 39 -70 6 -11 23
-36 39 -56 15 -20 27 -46 27 -57 0 -12 5 -24 11 -28 17 -10 5 -105 -15 -119
-21 -16 -20 -23 2 -21 13 1 18 -8 20 -40 3 -37 -1 -45 -27 -64 -26 -18 -29
-24 -20 -41 8 -16 7 -26 -5 -44 -17 -26 -22 -95 -7 -95 16 0 52 58 41 65 -5 3
-10 13 -10 22 0 24 60 87 89 93 32 7 24 26 -10 23 -20 -2 -28 3 -33 20 -11 42
-6 59 26 89 l32 30 -21 39 c-16 29 -18 39 -8 39 8 0 18 -6 22 -12 9 -14 37
-33 69 -47 48 -21 204 -100 259 -131 33 -18 74 -40 90 -49 17 -8 48 -29 69
-48 22 -18 45 -33 52 -33 6 0 22 -11 35 -25 13 -13 29 -25 34 -25 6 0 11 49
12 128 4 212 25 645 32 672 5 17 15 25 30 25 18 0 26 -9 38 -45 8 -25 23 -52
34 -62 10 -9 19 -28 19 -42 0 -37 27 -33 35 6 6 25 3 34 -14 47 -12 9 -24 30
-27 46 -3 17 -9 34 -15 40 -5 5 -9 22 -9 37 0 15 -3 27 -7 26 -5 -1 -18 1 -30
6 -25 8 -29 35 -17 109 5 28 12 39 30 43 29 7 30 15 5 31 -14 9 -21 26 -23 60
-3 41 -6 48 -25 51 -13 2 -23 -1 -23 -7 0 -19 -66 -12 -93 9 -14 11 -31 20
-39 20 -7 0 -49 20 -92 45 -44 25 -85 45 -92 45 -20 0 -74 34 -74 47 0 6 27
34 60 63 59 51 61 52 85 36 14 -9 26 -26 27 -39 1 -12 2 -31 3 -42 5 -68 46
-90 61 -32 10 41 11 110 2 117 -4 3 -11 30 -15 60 -8 55 -29 78 -35 38 -5 -37
-36 -35 -53 4 -18 45 -9 114 21 155 13 17 24 36 24 41 0 6 7 12 15 16 8 3 15
15 15 26 0 15 -7 20 -24 20 -33 0 -36 8 -42 87 -2 36 -5 67 -6 68 -2 2 -13 5
-24 9 -16 5 -31 -1 -55 -24 -29 -26 -32 -33 -21 -50 9 -15 9 -26 0 -47 -7 -15
-12 -46 -13 -68 0 -38 -3 -41 -48 -63 -26 -12 -47 -29 -47 -37 0 -18 31 -20
48 -3 10 10 17 7 34 -10 17 -17 20 -24 10 -34 -7 -7 -12 -27 -12 -45 0 -25 4
-33 18 -33 10 0 23 5 30 12 10 10 16 9 28 -4 15 -15 15 -20 -5 -60 -11 -25
-21 -49 -21 -55 0 -6 -20 -33 -44 -59 -43 -46 -46 -47 -73 -35 -15 7 -48 19
-73 26 -71 20 -142 48 -183 73 -21 12 -42 22 -47 22 -18 0 -142 93 -194 145
-54 55 -126 158 -160 230 -10 22 -22 48 -27 57 -5 10 -9 23 -9 29 0 6 -6 25
-14 42 -14 31 -33 124 -58 277 -19 118 -16 444 5 579 27 165 59 303 111 476
57 190 99 335 106 365 5 19 18 62 29 94 12 33 21 69 21 80 0 12 9 47 20 78 10
31 22 77 25 103 8 52 39 83 62 63 8 -6 13 -21 12 -32 -3 -42 0 -48 24 -41 37
12 42 23 20 47 -30 34 -37 64 -16 72 15 6 14 10 -10 30 -15 13 -27 32 -27 42
0 41 67 198 105 249 12 17 26 41 30 55 4 14 16 37 26 52 11 14 19 30 19 35 0
4 22 32 48 61 31 33 56 52 71 52 18 0 21 4 16 20 -4 13 1 25 17 37 12 10 39
35 60 56 20 20 40 37 44 37 3 0 24 16 47 35 22 19 47 35 55 35 8 0 31 14 52
30 21 17 46 30 55 30 20 0 75 31 75 42 0 4 16 8 36 8 21 0 48 9 67 24 44 32
248 106 294 106 10 0 29 7 41 16 13 9 29 13 37 10 7 -2 19 2 25 10 7 8 22 14
34 14 12 0 46 9 76 19 30 11 73 22 95 26 22 4 61 15 87 26 51 21 119 40 248
71 47 11 99 24 116 29 17 5 46 9 65 9 19 0 44 7 55 15 26 17 124 37 219 42 39
3 74 9 80 14 5 5 -845 9 -2183 9 l-2192 0 0 -4500z m2600 766 c0 -3 -4 -8 -10
-11 -5 -3 -10 -1 -10 4 0 6 5 11 10 11 6 0 10 -2 10 -4z"/>
<path d="M4506 8978 c-9 -35 -7 -76 4 -83 6 -4 10 15 10 49 0 60 -4 70 -14 34z"/>
<path d="M4881 8996 c5 -5 127 -26 184 -31 76 -8 291 -59 343 -81 18 -8 43
-14 56 -14 12 0 25 -3 29 -6 3 -4 55 -24 114 -44 191 -67 238 -85 241 -92 2
-5 12 -8 22 -8 9 0 23 -7 30 -15 7 -8 21 -15 31 -15 11 0 37 -11 59 -25 22
-14 46 -25 53 -25 7 0 48 -18 91 -40 42 -22 83 -40 90 -40 7 0 23 -11 36 -25
13 -14 29 -25 36 -25 17 0 160 -75 199 -104 17 -12 38 -25 48 -29 9 -3 17 -11
17 -17 0 -5 7 -10 16 -10 25 0 74 -39 74 -59 0 -10 -11 -23 -24 -29 -14 -6
-32 -23 -42 -37 -9 -14 -22 -25 -29 -25 -6 0 -20 -9 -30 -20 -10 -11 -29 -20
-42 -20 -13 0 -23 -6 -23 -14 0 -8 -9 -22 -21 -30 -12 -8 -18 -19 -15 -25 10
-16 -48 -95 -122 -168 -47 -48 -63 -69 -59 -84 6 -23 -37 -69 -65 -69 -11 0
-24 -14 -32 -35 -9 -21 -26 -40 -43 -47 -33 -14 -63 -38 -63 -50 0 -9 36 9 58
30 18 16 28 15 44 -5 9 -13 27 -18 62 -18 48 0 50 -2 84 -50 19 -27 45 -60 58
-72 20 -19 22 -25 12 -51 -9 -24 -9 -34 1 -46 22 -27 31 -18 31 32 0 48 -4 55
-72 137 -16 18 -28 41 -28 52 0 21 -23 46 -52 56 -24 9 -23 38 1 44 12 3 21
15 23 32 4 32 41 37 46 6 5 -26 21 -45 38 -45 26 0 14 38 -21 64 -41 32 -44
50 -11 71 13 9 36 41 51 71 16 32 37 60 51 66 13 6 24 15 24 19 0 5 14 22 30
39 17 17 30 40 30 50 0 25 10 25 55 0 43 -24 44 -24 39 -2 -6 22 29 60 75 79
19 8 40 22 46 30 8 10 19 13 32 9 30 -10 180 -162 218 -221 58 -91 122 -227
130 -276 4 -19 20 -86 36 -149 17 -63 35 -133 40 -155 6 -22 16 -62 24 -90 20
-74 57 -234 65 -285 5 -25 22 -117 40 -205 18 -88 36 -183 41 -212 5 -29 13
-63 19 -78 6 -16 6 -34 0 -50 -7 -20 -6 -25 5 -25 30 0 58 -103 80 -300 30
-264 12 -504 -53 -700 -66 -200 -180 -366 -321 -462 -58 -41 -152 -88 -174
-88 -10 0 -27 -5 -39 -11 -11 -6 -60 -17 -109 -24 -83 -13 -263 -63 -301 -85
-10 -6 -23 -10 -29 -10 -20 0 -199 -92 -236 -121 -20 -16 -46 -32 -59 -35 -17
-5 -25 -19 -38 -69 -9 -35 -16 -83 -16 -107 0 -24 -7 -56 -15 -72 -9 -17 -12
-33 -6 -40 4 -6 12 -83 15 -171 4 -88 11 -180 16 -205 5 -25 9 -70 9 -100 1
-53 29 -312 37 -338 3 -12 87 28 300 142 50 27 255 170 329 229 44 36 103 89
132 120 l52 54 4 204 c4 231 11 265 68 310 65 51 213 73 339 49 109 -20 155
-31 183 -45 17 -8 37 -15 45 -15 8 0 12 -6 8 -15 -3 -8 0 -26 6 -40 9 -19 7
-34 -6 -69 -10 -25 -15 -50 -11 -55 9 -16 35 -1 35 21 0 27 18 58 34 58 15 0
56 -62 56 -85 0 -8 9 -19 20 -25 31 -17 24 -38 -29 -91 -50 -50 -71 -60 -71
-35 0 7 -7 19 -16 26 -8 7 -14 23 -13 34 2 35 0 39 -16 26 -8 -7 -15 -20 -15
-30 0 -9 -10 -29 -21 -44 -18 -23 -20 -31 -9 -50 14 -27 6 -45 -52 -116 -35
-44 -36 -49 -39 -137 -2 -53 1 -97 7 -105 6 -7 14 -21 17 -30 9 -24 110 -88
140 -88 12 0 28 -5 35 -12 12 -12 62 -23 177 -38 39 -5 79 -11 90 -14 11 -2
56 -13 99 -22 89 -20 131 -39 179 -81 48 -42 50 -56 16 -100 -49 -61 -125
-132 -145 -136 -11 -2 -44 -28 -74 -58 -72 -72 -206 -146 -232 -130 -16 10
-18 9 -13 -11 4 -16 0 -26 -13 -33 -10 -5 -35 -19 -56 -30 l-38 -19 -17 23
c-13 17 -30 25 -60 27 -65 6 -135 50 -235 146 -21 21 -46 38 -56 38 -10 0 -20
3 -22 8 -1 4 -23 20 -48 36 -42 28 -51 30 -145 30 -109 0 -173 -12 -280 -52
-85 -31 -219 -100 -280 -145 -24 -17 -85 -61 -136 -97 -50 -36 -106 -77 -124
-93 -18 -15 -36 -27 -39 -27 -4 0 -21 -10 -39 -22 -75 -51 -87 -58 -97 -58
-10 0 -95 -55 -110 -70 -10 -11 -106 -76 -172 -118 -80 -50 -113 -55 -104 -16
8 30 -1 67 -15 59 -5 -4 -9 -14 -9 -24 0 -10 -7 -24 -15 -31 -14 -12 -14 -15
0 -30 8 -9 15 -21 15 -26 0 -13 -98 -95 -140 -117 -19 -11 -49 -30 -67 -43
-17 -13 -36 -24 -42 -24 -6 0 -31 -20 -55 -45 -25 -25 -49 -45 -54 -45 -4 0
-17 -8 -28 -18 -19 -17 -110 -76 -129 -83 -5 -2 -36 -19 -68 -38 l-58 -33 43
-47 c44 -49 148 -141 159 -141 3 0 19 -11 35 -25 16 -14 49 -35 74 -47 25 -11
59 -31 75 -42 17 -12 55 -35 85 -50 111 -59 243 -147 314 -210 16 -14 33 -26
38 -26 5 0 33 -19 61 -42 29 -24 54 -44 55 -45 2 -1 1 -11 -3 -22 -7 -22 -43
-29 -61 -11 -14 14 -82 -5 -110 -31 -27 -25 -21 -49 6 -24 14 12 29 15 67 9
37 -4 57 -2 74 9 49 30 82 28 140 -7 30 -18 70 -50 89 -70 19 -20 43 -36 53
-36 10 0 35 -9 55 -19 20 -11 62 -32 92 -47 75 -37 77 -39 52 -73 -22 -30 -20
-41 7 -41 28 0 24 -76 -5 -105 -24 -24 -32 -55 -15 -55 5 0 14 7 21 15 31 37
71 9 63 -44 l-6 -36 22 28 c30 37 66 36 86 -3 8 -16 15 -40 15 -54 0 -33 13
-40 34 -17 14 15 15 26 7 60 -5 24 -17 48 -27 56 -18 13 -18 14 1 35 11 12 27
19 37 17 19 -5 22 1 10 19 -18 30 -82 12 -82 -22 0 -17 -36 -19 -46 -3 -3 6
-17 9 -30 6 -13 -2 -25 1 -28 8 -3 8 8 15 29 19 30 6 33 10 39 50 9 57 23 68
75 60 40 -6 41 -8 41 -45 0 -41 14 -50 39 -26 10 10 17 7 36 -16 20 -23 23
-32 14 -53 -9 -26 -9 -26 22 -20 17 3 40 6 51 6 10 0 16 5 13 10 -3 6 -15 10
-26 10 -11 0 -22 8 -25 18 -3 9 -9 24 -13 32 -10 18 7 60 25 60 7 0 25 6 41
14 15 8 60 27 98 41 81 32 218 99 256 126 30 21 34 20 144 -55 139 -93 215
-158 215 -183 0 -7 5 -13 10 -13 6 0 10 -7 10 -15 0 -8 8 -15 19 -15 10 0 38
-25 65 -59 40 -52 46 -65 46 -108 -1 -60 -13 -77 -84 -108 -51 -22 -69 -25
-184 -25 -70 0 -145 5 -167 10 -62 15 -285 14 -317 0 -33 -16 -58 0 -58 35 0
13 -3 31 -6 39 -12 31 -34 -4 -34 -53 0 -34 -5 -51 -20 -64 -40 -34 -11 -192
66 -365 13 -29 24 -59 24 -67 0 -7 5 -17 10 -20 6 -3 10 -19 10 -34 0 -16 7
-45 15 -64 8 -20 15 -66 15 -102 l0 -65 1025 0 1025 0 0 4500 0 4500 -2062 0
c-1134 0 -2059 -2 -2057 -4z m2829 -4487 c0 -5 -9 -9 -19 -9 -14 0 -18 5 -14
20 4 16 8 18 19 9 8 -6 14 -15 14 -20z m65 -64 c0 -39 -28 -45 -50 -11 -21 31
-11 48 23 44 23 -2 27 -8 27 -33z"/>
<path d="M4032 8818 c-14 -14 -16 -28 -3 -28 9 0 24 30 18 36 -2 2 -9 -2 -15
-8z"/>
<path d="M4355 8740 c-3 -5 -1 -10 4 -10 6 0 11 5 11 10 0 6 -2 10 -4 10 -3 0
-8 -4 -11 -10z"/>
<path d="M4330 8640 c0 -11 7 -23 15 -27 26 -9 30 6 7 27 l-22 21 0 -21z"/>
<path d="M4190 8510 c0 -16 23 -60 31 -60 18 0 19 21 2 45 -19 25 -33 32 -33
15z"/>
<path d="M3732 8488 c7 -20 58 -23 58 -4 0 11 -10 16 -31 16 -20 0 -29 -4 -27
-12z"/>
<path d="M4190 8443 c0 -4 5 -15 10 -23 8 -13 10 -13 10 2 0 9 -4 20 -10 23
-5 3 -10 3 -10 -2z"/>
<path d="M3663 8344 c-36 -30 -41 -38 -31 -53 15 -25 4 -48 -32 -69 -20 -11
-30 -25 -30 -40 0 -13 -9 -31 -20 -40 -22 -18 -44 -92 -32 -104 4 -3 26 -3 49
1 23 5 47 5 53 1 16 -10 3 -50 -15 -50 -20 0 -28 -19 -15 -35 9 -10 4 -16 -24
-25 -47 -15 -51 -25 -26 -60 l22 -30 -34 -14 c-27 -12 -30 -16 -15 -21 9 -4
28 -4 42 -1 31 8 37 -6 27 -54 -7 -30 -12 -35 -35 -33 -22 2 -28 -3 -33 -25
-4 -15 -14 -35 -22 -44 -14 -16 -13 -20 1 -35 8 -10 17 -29 19 -43 5 -39 34
-32 30 8 -4 35 0 37 29 22 24 -13 25 -39 2 -56 -14 -10 -15 -15 -6 -25 9 -9 1
-17 -35 -35 -26 -13 -53 -24 -60 -24 -6 0 -35 -11 -64 -25 -28 -14 -60 -25
-71 -25 -10 0 -38 -11 -61 -25 -24 -14 -45 -22 -49 -19 -3 3 -18 -3 -34 -14
-15 -10 -45 -25 -65 -31 -21 -7 -40 -16 -43 -21 -3 -5 -18 -15 -33 -23 -15 -8
-72 -38 -127 -67 -55 -28 -106 -57 -112 -62 -7 -6 -20 -8 -28 -4 -10 3 -18 -1
-22 -12 -10 -28 -55 -72 -75 -72 -10 0 -41 -26 -70 -57 -29 -31 -63 -67 -75
-80 -13 -13 -23 -27 -23 -30 0 -3 -16 -38 -35 -77 -19 -39 -46 -114 -60 -166
-22 -84 -25 -115 -26 -267 0 -111 4 -180 11 -194 7 -11 10 -30 7 -40 -3 -12 4
-29 18 -44 14 -13 29 -44 36 -69 7 -30 33 -72 80 -130 38 -47 69 -92 69 -100
0 -8 -7 -21 -15 -30 -14 -13 -13 -16 2 -24 15 -9 15 -14 5 -37 -16 -36 -15
-62 4 -73 14 -8 14 -10 0 -21 -18 -15 -21 -47 -6 -56 6 -3 10 -2 10 3 0 5 18
27 41 48 33 32 39 44 36 69 -2 17 -2 36 0 43 7 18 40 15 60 -7 17 -17 34 -23
120 -38 60 -10 63 -42 10 -100 -28 -31 -15 -39 28 -19 42 20 65 9 65 -31 0
-14 9 -38 21 -54 26 -37 20 -58 -16 -51 -17 3 -30 0 -36 -9 -14 -23 -11 -28
19 -26 25 2 27 -1 30 -40 3 -34 0 -42 -17 -48 -14 -4 -22 -18 -27 -51 -3 -25
-13 -48 -20 -51 -18 -7 -18 -23 0 -23 8 0 24 -8 36 -18 21 -17 22 -22 11 -52
-6 -19 -21 -45 -34 -58 l-22 -23 24 -18 c23 -18 24 -17 67 25 24 23 44 45 44
48 0 3 -14 22 -32 41 l-31 36 42 42 c40 39 41 41 22 49 -32 11 -36 36 -12 62
24 25 28 56 7 56 -21 0 -25 23 -8 43 14 15 13 21 -8 62 -34 66 -40 124 -15
161 16 25 40 30 64 15 10 -7 23 -3 39 10 14 10 35 19 48 19 13 0 36 5 51 12
87 35 201 92 251 125 93 61 99 63 113 47 6 -8 9 -23 6 -33 -6 -23 4 -28 47
-23 35 4 55 27 67 80 5 25 4 35 -7 39 -23 8 -16 31 13 45 15 7 33 23 39 36 14
28 43 51 67 52 9 0 17 5 17 11 0 6 24 36 53 67 29 31 77 86 107 122 30 36 75
86 101 112 26 25 59 65 73 87 29 45 49 51 68 21 21 -33 37 -25 28 14 -4 19 -6
37 -4 39 3 2 -2 10 -11 17 -19 15 -19 44 -2 59 8 6 20 30 27 53 15 45 34 81
59 111 9 11 16 33 17 50 1 18 9 61 17 97 8 36 19 108 22 160 5 64 13 101 23
113 13 15 14 23 4 51 -7 18 -12 40 -12 49 0 9 -11 41 -24 70 -68 155 -287 216
-619 172 -65 -8 -122 -13 -126 -11 -4 3 -8 21 -9 41 -1 31 6 44 48 86 27 27
56 49 64 49 23 0 29 20 12 39 -9 10 -16 25 -16 34 0 9 -4 19 -10 22 -5 3 -10
18 -10 32 0 22 -3 24 -24 19 -20 -5 -24 -1 -29 24 -6 26 10 76 23 76 3 -1 14
6 26 14 22 15 60 80 47 80 -4 0 6 13 21 29 18 19 34 27 47 24 14 -4 19 0 19
16 0 11 5 21 10 21 16 0 12 66 -5 80 -18 15 -18 15 -30 -24 -17 -52 -115 -63
-115 -13 0 35 16 53 33 39 10 -9 18 -9 31 1 21 16 18 62 -4 62 -8 0 -24 5 -34
11 -22 13 -16 44 9 44 20 0 19 13 -3 33 -25 23 -31 22 -79 -19z m-1 -196 c-18
-18 -15 -26 11 -30 18 -2 22 -9 22 -38 0 -30 -3 -35 -27 -38 -19 -2 -28 2 -33
17 -6 21 -25 29 -25 11 0 -19 -39 -10 -50 11 -7 11 -10 22 -8 23 2 1 16 8 32
14 22 10 26 16 17 25 -9 9 -4 14 21 23 36 13 60 2 40 -18z m53 -158 c-5 -8
-11 -8 -17 -2 -6 6 -7 16 -3 22 5 8 11 8 17 2 6 -6 7 -16 3 -22z"/>
<path d="M2980 8361 c0 -6 5 -13 10 -16 6 -4 7 -28 4 -61 -5 -37 -3 -54 5 -54
6 0 11 7 11 15 0 9 11 27 25 41 31 31 31 35 2 62 -24 22 -57 30 -57 13z"/>
<path d="M2917 8333 c-9 -9 -9 -61 1 -67 4 -2 15 2 25 9 12 8 14 15 8 20 -6 3
-11 15 -11 26 0 19 -11 25 -23 12z"/>
<path d="M6464 8319 c-10 -17 13 -36 27 -22 12 12 4 33 -11 33 -5 0 -12 -5
-16 -11z"/>
<path d="M2845 8283 c8 -33 11 -37 23 -29 7 4 6 15 -1 31 -16 33 -31 32 -22
-2z"/>
<path d="M2663 8282 c-35 -17 -41 -27 -20 -35 14 -5 71 39 59 46 -4 3 -22 -2
-39 -11z"/>
<path d="M5810 8279 c0 -5 5 -7 10 -4 6 3 10 8 10 11 0 2 -4 4 -10 4 -5 0 -10
-5 -10 -11z"/>
<path d="M2420 8261 c0 -12 37 -24 50 -16 20 12 10 25 -20 25 -16 0 -30 -4
-30 -9z"/>
<path d="M2490 8260 c0 -5 16 -10 35 -10 19 0 35 5 35 10 0 6 -16 10 -35 10
-19 0 -35 -4 -35 -10z"/>
<path d="M2943 8220 c-4 -14 -14 -20 -37 -21 -17 -1 -38 -2 -46 -3 -8 -2 -25
-3 -37 -4 -16 -1 -23 -8 -23 -22 0 -11 4 -20 8 -20 5 0 26 -17 46 -37 29 -30
36 -43 32 -63 -6 -30 7 -56 23 -46 14 9 41 72 41 96 0 10 -6 20 -12 23 -7 2
-10 8 -6 12 4 4 14 2 23 -5 23 -19 28 -7 26 61 -1 42 -29 63 -38 29z"/>
<path d="M4330 8190 c0 -13 7 -20 20 -20 23 0 26 10 8 28 -18 18 -28 15 -28
-8z"/>
<path d="M4270 8156 c0 -9 5 -16 10 -16 6 0 10 4 10 9 0 6 -4 13 -10 16 -5 3
-10 -1 -10 -9z"/>
<path d="M3205 8130 c-3 -5 1 -10 10 -10 9 0 13 5 10 10 -3 6 -8 10 -10 10 -2
0 -7 -4 -10 -10z"/>
<path d="M4055 8120 c4 -6 11 -8 16 -5 14 9 11 15 -7 15 -8 0 -12 -5 -9 -10z"/>
<path d="M3160 8100 c0 -5 4 -10 9 -10 6 0 13 5 16 10 3 6 -1 10 -9 10 -9 0
-16 -4 -16 -10z"/>
<path d="M3854 8064 c3 -9 6 -18 6 -20 0 -3 4 -3 10 1 11 7 2 35 -12 35 -6 0
-7 -7 -4 -16z"/>
<path d="M2391 8005 c-10 -28 -10 -39 -1 -50 24 -29 35 -17 32 35 -2 27 -7 50
-11 50 -4 0 -13 -16 -20 -35z"/>
<path d="M3527 7988 c-10 -11 -16 -22 -13 -25 8 -8 66 21 63 32 -6 18 -31 14
-50 -7z"/>
<path d="M2697 7963 c-10 -9 -9 -23 2 -23 5 0 11 7 15 15 5 15 -5 20 -17 8z"/>
<path d="M5860 7961 c0 -5 5 -13 10 -16 6 -3 10 -2 10 4 0 5 -4 13 -10 16 -5
3 -10 2 -10 -4z"/>
<path d="M4556 7928 c-15 -49 -16 -68 -2 -68 18 0 36 30 36 59 0 23 -28 29
-34 9z"/>
<path d="M3935 7909 c-7 -10 10 -28 28 -29 12 0 8 17 -7 29 -11 9 -16 9 -21 0z"/>
<path d="M2397 7880 c-3 -11 -1 -20 4 -20 5 0 9 9 9 20 0 11 -2 20 -4 20 -2 0
-6 -9 -9 -20z"/>
<path d="M5906 7871 c-3 -5 1 -14 9 -21 12 -10 15 -10 15 3 0 19 -16 31 -24
18z"/>
<path d="M2377 7843 c-11 -10 -8 -113 3 -113 10 0 14 -43 4 -52 -10 -10 -44 4
-44 19 0 11 -4 12 -22 1 -22 -12 -22 -12 -3 -16 11 -3 26 -13 33 -23 7 -11 19
-19 26 -19 18 0 46 -44 46 -72 0 -13 6 -32 14 -43 17 -25 17 -103 1 -130 -8
-13 -12 -51 -11 -105 2 -47 1 -90 -2 -97 -2 -7 -19 -17 -38 -23 -19 -7 -32
-15 -29 -20 3 -4 -17 -27 -45 -50 -49 -41 -64 -70 -36 -70 8 0 16 7 20 15 7
18 33 9 41 -14 8 -27 -24 -82 -56 -95 l-28 -12 29 -18 c35 -20 42 -51 10 -41
-16 5 -20 2 -20 -19 0 -33 -17 -42 -41 -20 -26 23 -24 33 9 45 24 9 25 11 9
20 -9 6 -26 7 -37 4 -14 -4 -22 -1 -27 12 -3 10 -12 25 -18 33 -7 8 -15 22
-18 30 -2 8 -3 3 -1 -12 2 -16 13 -47 24 -70 11 -23 20 -55 20 -71 0 -16 9
-40 19 -53 20 -25 20 -25 31 -5 13 25 27 26 52 4 17 -15 18 -14 24 15 5 27 10
31 29 26 19 -5 21 -2 17 25 -3 25 0 32 22 42 25 12 26 12 6 26 -28 20 -25 58
7 81 26 19 25 49 -3 38 -7 -3 -16 -1 -19 4 -7 11 41 90 54 90 15 0 22 32 10
46 -9 11 -5 16 20 25 17 6 31 17 31 24 0 7 7 18 15 25 22 18 18 32 -7 28 -22
-3 -23 0 -23 80 -1 46 3 88 6 94 4 7 1 25 -8 41 -11 22 -13 44 -9 79 6 43 3
57 -29 120 -23 46 -35 85 -35 112 0 43 -11 71 -23 59z"/>
<path d="M3760 7809 c0 -13 46 -59 58 -59 9 1 52 37 52 44 0 3 -11 6 -24 6
-14 0 -28 5 -31 10 -9 14 -55 13 -55 -1z"/>
<path d="M4661 7796 c-8 -20 -9 -32 -1 -40 17 -17 30 6 21 39 l-8 30 -12 -29z"/>
<path d="M2766 7777 c-17 -12 -17 -17 -5 -52 11 -30 56 -92 60 -82 0 1 6 28
13 60 9 39 9 56 2 54 -6 -3 -20 4 -32 14 -17 16 -23 17 -38 6z"/>
<path d="M2275 7740 c-3 -5 -1 -10 4 -10 6 0 11 5 11 10 0 6 -2 10 -4 10 -3 0
-8 -4 -11 -10z"/>
<path d="M2562 7724 c2 -11 11 -20 22 -22 13 -3 17 1 14 14 -2 11 -11 20 -22
22 -13 3 -17 -1 -14 -14z"/>
<path d="M2226 7705 c-14 -11 -17 -18 -9 -26 7 -7 15 -2 27 15 18 29 11 33
-18 11z"/>
<path d="M6358 7633 c6 -2 18 -2 25 0 6 3 1 5 -13 5 -14 0 -19 -2 -12 -5z"/>
<path d="M2263 7623 c-7 -2 -13 -9 -13 -15 0 -14 43 -6 48 10 4 12 -12 15 -35
5z"/>
<path d="M3075 7619 c-4 -6 -5 -13 -2 -16 7 -7 27 6 27 18 0 12 -17 12 -25 -2z"/>
<path d="M4444 7605 c3 -9 6 -19 6 -21 0 -2 7 -4 16 -4 22 0 13 34 -10 38 -14
3 -17 0 -12 -13z"/>
<path d="M5878 7539 c-10 -5 -18 -16 -18 -24 0 -11 6 -11 33 -2 43 15 44 17
27 27 -18 12 -21 12 -42 -1z"/>
<path d="M5955 7540 c-3 -5 1 -10 9 -10 9 0 16 5 16 10 0 6 -4 10 -9 10 -6 0
-13 -4 -16 -10z"/>
<path d="M5371 7519 c-94 -10 -155 -38 -218 -98 -21 -20 -45 -40 -53 -43 -9
-3 -22 -35 -33 -80 -14 -59 -15 -86 -7 -128 5 -29 10 -100 11 -159 1 -186 24
-332 74 -465 60 -161 150 -317 263 -457 34 -43 62 -82 62 -87 0 -6 11 -19 25
-30 22 -18 75 -65 225 -201 25 -22 50 -41 56 -41 6 0 17 -6 23 -14 21 -25 137
-75 210 -91 189 -40 372 3 496 117 53 48 125 144 125 165 0 6 6 16 14 22 7 6
19 33 26 59 7 26 16 52 20 57 16 22 42 187 47 300 11 255 -49 469 -186 652
-89 121 -271 260 -451 344 -25 12 -67 32 -93 45 -27 13 -56 24 -66 24 -9 0
-25 6 -36 14 -11 7 -33 16 -50 20 -48 11 -96 24 -155 41 -54 16 -141 32 -210
40 -19 2 -73 -1 -119 -6z"/>
<path d="M2107 7501 c-2 -10 -1 -25 4 -32 16 -25 9 -39 -18 -40 -16 0 -22 -3
-15 -6 21 -8 12 -47 -18 -77 -32 -32 -39 -66 -16 -86 13 -10 20 -36 42 -148 4
-20 7 -22 20 -11 16 13 16 28 -2 154 -5 38 -2 43 46 92 48 49 57 73 26 73 -17
0 -30 35 -27 73 2 21 -2 27 -17 27 -11 0 -22 -9 -25 -19z m-32 -201 c3 -5 1
-10 -4 -10 -6 0 -11 5 -11 10 0 6 2 10 4 10 3 0 8 -4 11 -10z"/>
<path d="M2996 7465 c4 -8 8 -15 10 -15 2 0 4 7 4 15 0 8 -4 15 -10 15 -5 0
-7 -7 -4 -15z"/>
<path d="M2195 7450 c-3 -5 3 -10 15 -10 12 0 18 5 15 10 -3 6 -10 10 -15 10
-5 0 -12 -4 -15 -10z"/>
<path d="M5040 7431 c0 -6 5 -13 10 -16 6 -3 10 1 10 9 0 9 -4 16 -10 16 -5 0
-10 -4 -10 -9z"/>
<path d="M3022 7388 c3 -7 13 -15 24 -17 16 -3 17 -1 5 13 -16 19 -34 21 -29
4z"/>
<path d="M2200 7349 c0 -5 5 -7 10 -4 6 3 10 8 10 11 0 2 -4 4 -10 4 -5 0 -10
-5 -10 -11z"/>
<path d="M2575 7301 c-3 -16 -13 -32 -21 -35 -12 -4 -13 -10 -4 -26 9 -17 7
-26 -10 -47 -11 -14 -18 -34 -15 -43 3 -10 -1 -23 -10 -30 -16 -13 -20 -40 -6
-40 10 0 45 78 60 137 7 23 16 45 21 48 13 8 13 52 1 59 -5 4 -12 -7 -16 -23z"/>
<path d="M2332 7196 c-16 -20 -19 -33 -12 -40 15 -15 42 16 38 45 l-3 24 -23
-29z"/>
<path d="M2100 7042 c0 -5 7 -16 16 -23 14 -12 16 -11 13 5 -4 20 -29 35 -29
18z"/>
<path d="M7047 6654 c-8 -8 1 -24 14 -24 5 0 9 7 9 15 0 15 -12 20 -23 9z"/>
<path d="M2260 6584 c0 -9 5 -14 12 -12 18 6 21 28 4 28 -9 0 -16 -7 -16 -16z"/>
<path d="M4420 6590 c0 -5 -9 -10 -20 -10 -11 0 -20 -7 -20 -15 0 -20 12 -19
38 4 24 20 28 31 12 31 -5 0 -10 -4 -10 -10z"/>
<path d="M2245 6551 c-3 -5 -1 -12 5 -16 5 -3 10 1 10 9 0 18 -6 21 -15 7z"/>
<path d="M4390 6411 c0 -6 5 -13 10 -16 6 -3 10 1 10 9 0 9 -4 16 -10 16 -5 0
-10 -4 -10 -9z"/>
<path d="M2305 6390 c-10 -11 -27 -20 -37 -20 -10 0 -22 -11 -28 -24 -7 -18
-18 -26 -42 -28 -39 -4 -44 -21 -8 -26 31 -5 50 -20 50 -41 0 -9 4 -22 9 -30
8 -12 12 -13 25 -1 15 12 15 15 0 37 -17 28 -13 53 11 53 15 0 19 10 16 43 -1
9 4 17 12 17 12 0 27 20 27 36 0 11 -19 2 -35 -16z"/>
<path d="M2110 6280 c0 -5 5 -10 10 -10 6 0 10 5 10 10 0 6 -4 10 -10 10 -5 0
-10 -4 -10 -10z"/>
<path d="M4425 6280 c-3 -6 5 -11 19 -11 14 -1 31 -2 38 -3 6 -1 13 5 16 12 5
15 -64 17 -73 2z"/>
<path d="M4125 6199 c-4 -6 -26 -9 -49 -8 -74 6 -117 -23 -53 -35 60 -11 127
10 127 40 0 17 -16 18 -25 3z"/>
<path d="M1740 6072 c0 -11 22 -32 32 -32 5 0 4 9 -2 20 -11 20 -30 28 -30 12z"/>
<path d="M1855 6050 c-7 -12 2 -30 16 -30 12 0 12 27 0 35 -5 3 -12 1 -16 -5z"/>
<path d="M4499 5990 c-39 -38 -80 -70 -90 -70 -11 0 -29 -16 -43 -37 -13 -21
-54 -67 -90 -101 -80 -76 -95 -73 -97 17 -1 49 -2 52 -9 23 -10 -41 -17 -49
-32 -34 -22 22 -28 12 -28 -47 0 -40 -5 -62 -15 -71 -14 -11 -14 -15 0 -37 16
-23 15 -26 -12 -60 -15 -19 -35 -45 -43 -57 -56 -81 -104 -135 -126 -140 -14
-4 -22 -11 -18 -17 8 -14 -25 -49 -47 -49 -21 0 -28 -26 -15 -61 8 -22 4 -36
-22 -83 -18 -30 -32 -64 -32 -75 0 -11 -7 -26 -15 -35 -8 -8 -15 -22 -15 -31
0 -22 30 -32 44 -14 22 28 151 10 161 -22 7 -20 30 -26 40 -9 3 5 33 7 70 3
63 -6 125 8 125 28 0 5 5 9 10 9 17 0 69 41 129 103 31 31 61 57 66 57 6 0 30
18 53 39 55 51 97 65 207 65 79 1 96 -2 144 -27 29 -15 70 -42 91 -60 21 -18
59 -43 84 -56 26 -12 69 -38 97 -57 28 -19 55 -34 60 -34 5 0 9 -4 9 -9 0 -13
82 -41 123 -41 57 0 157 51 187 96 28 42 50 105 50 148 0 27 -59 115 -176 266
-93 118 -304 329 -394 392 -14 10 -44 31 -67 48 -24 16 -46 30 -50 30 -5 0
-43 18 -86 40 -116 60 -138 57 -228 -30z"/>
<path d="M2176 6035 c-8 -21 28 -39 43 -22 8 10 7 17 -1 25 -16 16 -35 15 -42
-3z"/>
<path d="M2455 5970 c-3 -5 -1 -10 4 -10 6 0 11 5 11 10 0 6 -2 10 -4 10 -3 0
-8 -4 -11 -10z"/>
<path d="M2145 5940 c-3 -5 2 -10 12 -10 11 0 24 -5 31 -12 9 -9 12 -7 12 10
0 17 -6 22 -24 22 -14 0 -28 -4 -31 -10z"/>
<path d="M3918 5929 c-25 -14 -22 -31 4 -27 13 2 24 11 26 21 4 19 -5 21 -30
6z"/>
<path d="M4295 5890 c-3 -5 -1 -10 4 -10 6 0 11 5 11 10 0 6 -2 10 -4 10 -3 0
-8 -4 -11 -10z"/>
<path d="M5070 5880 c14 -11 39 -19 55 -19 30 0 30 1 -10 19 -54 25 -77 25
-45 0z"/>
<path d="M3773 5853 c-7 -3 -13 -13 -13 -22 0 -18 -37 -58 -49 -53 -3 1 -7 -8
-9 -22 -3 -22 26 -66 43 -66 12 0 78 70 72 76 -4 4 -13 1 -22 -6 -12 -10 -16
-9 -21 3 -10 27 0 52 21 52 25 0 32 31 8 37 -10 3 -24 3 -30 1z"/>
<path d="M5280 5805 c0 -8 6 -15 14 -15 8 0 16 7 20 15 4 10 -1 15 -14 15 -11
0 -20 -7 -20 -15z"/>
<path d="M5350 5760 c0 -6 7 -10 15 -10 8 0 15 2 15 4 0 2 -7 6 -15 10 -8 3
-15 1 -15 -4z"/>
<path d="M5412 5738 c3 -7 14 -14 26 -16 28 -4 29 -32 1 -32 -14 0 -19 -5 -17
-17 2 -11 22 -20 64 -29 34 -7 81 -24 104 -39 23 -14 44 -24 48 -21 3 3 -3 22
-13 41 -18 32 -20 33 -37 19 -16 -15 -19 -14 -41 10 -13 14 -32 26 -41 26 -21
0 -21 36 0 44 8 3 12 10 9 16 -4 6 -13 7 -24 1 -10 -6 -23 -6 -32 0 -21 13
-51 11 -47 -3z"/>
<path d="M5365 5720 c-3 -6 1 -13 10 -16 19 -8 30 0 20 15 -8 14 -22 14 -30 1z"/>
<path d="M5565 5680 c3 -5 10 -10 16 -10 5 0 9 5 9 10 0 6 -7 10 -16 10 -8 0
-12 -4 -9 -10z"/>
<path d="M3645 5650 c3 -5 8 -10 11 -10 2 0 4 5 4 10 0 6 -5 10 -11 10 -5 0
-7 -4 -4 -10z"/>
<path d="M3751 5631 c-1 -27 2 -32 11 -23 8 8 8 17 0 34 -10 22 -11 21 -11
-11z"/>
<path d="M3340 5474 c0 -8 5 -12 10 -9 6 4 8 11 5 16 -9 14 -15 11 -15 -7z"/>
<path d="M2341 5441 c-14 -25 -14 -44 -1 -36 17 11 31 43 21 50 -6 3 -15 -3
-20 -14z"/>
<path d="M3243 5414 c-26 -30 -31 -41 -26 -70 7 -43 29 -42 54 1 26 46 30 69
17 88 -12 15 -16 14 -45 -19z"/>
<path d="M3657 5116 c-24 -20 -26 -24 -13 -35 19 -16 66 12 66 40 0 25 -19 23
-53 -5z"/>
<path d="M3240 5110 c0 -5 7 -10 16 -10 8 0 12 5 9 10 -3 6 -10 10 -16 10 -5
0 -9 -4 -9 -10z"/>
<path d="M3415 5090 c-3 -5 -1 -10 4 -10 6 0 11 5 11 10 0 6 -2 10 -4 10 -3 0
-8 -4 -11 -10z"/>
<path d="M3687 5074 c-15 -15 -6 -24 23 -24 17 0 30 5 30 10 0 6 -4 10 -9 10
-5 0 -16 2 -23 5 -8 3 -17 2 -21 -1z"/>
<path d="M3290 5035 c-42 -15 -48 -28 -18 -42 39 -17 118 28 85 49 -15 10 -23
9 -67 -7z"/>
<path d="M2370 5015 c0 -9 5 -15 11 -13 6 2 11 8 11 13 0 5 -5 11 -11 13 -6 2
-11 -4 -11 -13z"/>
<path d="M2530 5015 c0 -8 7 -15 16 -15 14 0 14 3 4 15 -7 8 -14 15 -16 15 -2
0 -4 -7 -4 -15z"/>
<path d="M4295 4979 c-4 -6 -3 -15 3 -21 6 -6 11 -4 15 6 7 18 -9 31 -18 15z"/>
<path d="M2971 4962 c-5 -10 -25 -27 -45 -37 -32 -17 -35 -22 -32 -60 1 -22 9
-51 18 -63 l16 -23 31 31 c35 36 38 46 15 71 -19 21 -10 42 16 34 11 -3 20 0
24 10 3 8 15 15 26 15 12 0 20 7 20 16 0 11 -8 15 -28 13 -15 -2 -32 0 -39 4
-7 5 -16 0 -22 -11z"/>
<path d="M3132 4873 c-8 -19 -9 -30 -1 -37 15 -16 51 34 37 51 -15 19 -21 16
-36 -14z"/>
<path d="M5384 4846 c-4 -10 -2 -22 4 -28 8 -8 13 -7 18 6 4 10 2 22 -4 28 -8
8 -13 7 -18 -6z"/>
<path d="M3026 4816 c-3 -11 -6 -35 -6 -53 0 -17 -5 -33 -11 -35 -6 -2 1 -16
15 -30 13 -15 26 -38 28 -50 2 -17 8 -8 21 31 12 37 14 58 7 65 -5 5 -10 27
-10 47 0 28 -5 38 -19 42 -14 3 -21 -2 -25 -17z"/>
<path d="M3868 4809 c-20 -11 -24 -34 -8 -44 12 -8 59 26 60 43 0 14 -28 15
-52 1z"/>
<path d="M3136 4794 c-9 -24 0 -29 31 -18 32 11 32 28 0 32 -16 2 -27 -3 -31
-14z"/>
<path d="M2782 4788 c-16 -16 -15 -25 2 -31 16 -7 28 14 17 31 -5 9 -10 9 -19
0z"/>
<path d="M4895 4770 c3 -5 10 -10 16 -10 5 0 9 5 9 10 0 6 -7 10 -16 10 -8 0
-12 -4 -9 -10z"/>
<path d="M3910 4726 c0 -9 5 -16 10 -16 6 0 10 4 10 9 0 6 -4 13 -10 16 -5 3
-10 -1 -10 -9z"/>
<path d="M3940 4698 c1 -13 48 -53 54 -46 2 1 6 15 10 31 6 26 5 27 -29 27
-21 0 -35 -5 -35 -12z"/>
<path d="M3816 4664 c-9 -8 -16 -22 -16 -30 0 -8 -6 -23 -12 -34 -10 -15 -10
-22 0 -32 14 -14 16 -64 2 -73 -5 -3 -10 -15 -10 -26 0 -10 5 -19 10 -19 16 0
12 -26 -6 -41 -13 -10 -20 -10 -36 0 -26 16 -40 4 -60 -56 -46 -137 -56 -215
-73 -578 -6 -122 -29 -323 -45 -388 -7 -27 -20 -51 -31 -57 -22 -12 -198 -3
-215 11 -6 5 -13 6 -16 3 -3 -3 -37 -10 -74 -15 -108 -15 -108 -15 53 -120 38
-25 63 -50 67 -65 4 -16 13 -24 28 -24 25 0 122 -56 247 -142 47 -33 104 -71
126 -85 22 -14 42 -29 45 -33 3 -4 15 -12 28 -19 44 -23 12 -61 -54 -61 -26 0
-31 -9 -12 -28 18 -18 32 -15 63 14 44 40 78 35 176 -29 46 -30 101 -64 122
-76 20 -11 54 -31 75 -43 20 -11 46 -26 57 -32 11 -6 34 -20 50 -32 36 -25
195 -104 209 -104 6 0 36 16 66 37 30 20 73 48 95 61 22 14 52 33 67 44 15 10
29 18 32 18 3 0 56 32 118 71 62 39 122 75 133 80 24 11 49 26 92 56 17 13 35
23 38 23 4 0 21 10 38 23 35 25 50 34 98 61 173 98 569 401 569 436 0 9 -21
11 -82 6 -346 -26 -348 -25 -348 79 0 35 -4 86 -9 112 -19 99 -71 586 -71 665
0 37 -4 70 -10 73 -5 3 -10 15 -10 25 0 22 -55 88 -65 79 -5 -6 -16 -114 -14
-146 2 -20 0 -159 -2 -195 -1 -28 6 -82 27 -208 9 -53 17 -448 10 -493 -4 -27
-13 -50 -19 -51 -33 -9 -194 -30 -282 -36 -90 -7 -103 -5 -128 12 -34 23 -75
17 -43 -7 16 -12 13 -13 -25 -10 -24 1 -56 3 -70 4 -14 1 -39 15 -57 32 -62
60 -62 61 -61 403 1 171 5 316 10 321 4 6 2 28 -6 50 -8 22 -14 54 -15 72 0
42 -49 244 -63 261 -5 7 -14 9 -18 5 -8 -9 -41 -164 -38 -179 1 -5 -1 -43 -5
-84 -4 -41 -8 -190 -9 -331 -2 -200 -5 -260 -16 -272 -9 -12 -10 -21 -3 -30
16 -19 -2 -220 -21 -235 -7 -5 -85 -12 -174 -15 -147 -6 -163 -5 -172 11 -9
15 -12 15 -27 -6 -18 -26 -6 -25 -173 -8 -87 9 -142 45 -154 101 -14 64 -1
323 19 372 16 40 16 44 0 78 -31 64 6 161 48 126 9 -8 16 -24 16 -37 0 -15 6
-24 15 -24 21 0 19 -23 -6 -54 -19 -24 -20 -29 -7 -42 12 -12 17 -10 36 15 30
41 39 81 18 81 -17 0 -19 11 -10 48 5 19 13 23 38 21 40 -3 96 19 96 37 0 17
-40 18 -90 4 -28 -8 -37 -7 -46 5 -6 8 -26 15 -44 15 -29 0 -32 3 -26 23 3 12
6 28 6 35 0 7 17 28 37 47 35 32 42 63 7 35 -13 -12 -17 -11 -25 1 -13 20 -11
27 8 38 16 8 15 11 -7 30 -14 11 -28 20 -32 21 -14 0 -8 27 12 53 11 14 20 37
20 51 0 18 5 26 18 26 40 0 57 46 20 52 -31 4 -34 35 -8 63 22 23 22 24 4 54
-18 30 -18 30 10 52 25 20 26 22 11 40 -10 10 -14 22 -11 28 11 17 -12 22 -28
5z"/>
<path d="M3550 4642 c0 -5 7 -16 16 -23 14 -12 16 -11 13 5 -4 20 -29 35 -29
18z"/>
<path d="M4115 4570 c-3 -5 -1 -10 4 -10 6 0 11 5 11 10 0 6 -2 10 -4 10 -3 0
-8 -4 -11 -10z"/>
<path d="M3215 4530 c-17 -11 -23 -20 -15 -20 17 1 56 28 49 34 -3 3 -18 -4
-34 -14z"/>
<path d="M5340 4540 c0 -5 5 -10 10 -10 6 0 10 5 10 10 0 6 -4 10 -10 10 -5 0
-10 -4 -10 -10z"/>
<path d="M1780 4390 c-8 -5 -11 -12 -7 -16 4 -4 13 -2 19 4 15 15 7 24 -12 12z"/>
<path d="M3906 4371 c-4 -5 -3 -16 0 -25 5 -12 10 -14 20 -6 7 7 10 18 7 26
-6 16 -19 18 -27 5z"/>
<path d="M3930 4295 c0 -8 5 -15 10 -15 6 0 10 7 10 15 0 8 -4 15 -10 15 -5 0
-10 -7 -10 -15z"/>
<path d="M4390 4251 c0 -6 5 -13 10 -16 6 -3 10 1 10 9 0 9 -4 16 -10 16 -5 0
-10 -4 -10 -9z"/>
<path d="M3210 4204 c-8 -21 -7 -33 9 -56 23 -38 35 -23 26 32 -8 50 -22 59
-35 24z"/>
<path d="M4335 4150 c-3 -5 1 -10 9 -10 9 0 16 5 16 10 0 6 -4 10 -9 10 -6 0
-13 -4 -16 -10z"/>
<path d="M1815 4030 c-7 -11 34 -74 42 -66 3 3 2 21 -1 41 -7 34 -28 47 -41
25z"/>
<path d="M3913 3898 c-21 -10 -32 -38 -15 -38 4 0 14 -11 24 -24 15 -21 15
-25 0 -56 -11 -22 -13 -35 -5 -37 7 -3 6 -17 -4 -45 -17 -51 -10 -59 21 -25
14 15 30 27 37 27 8 0 6 7 -4 18 -23 25 -21 39 8 58 34 22 35 81 2 112 -26 24
-32 25 -64 10z"/>
<path d="M7256 3875 c-18 -13 -18 -15 -2 -21 21 -8 44 12 31 25 -6 6 -17 4
-29 -4z"/>
<path d="M6870 3841 c-8 -16 -17 -20 -35 -15 -15 4 -25 2 -25 -5 0 -6 12 -11
26 -11 15 0 53 -10 85 -21 53 -20 62 -20 104 -8 40 12 44 15 29 26 -11 8 -23
9 -35 3 -21 -12 -76 -13 -81 -2 -2 4 -15 18 -30 30 l-26 24 -12 -21z"/>
<path d="M4837 3826 c-15 -22 -15 -25 -1 -37 14 -11 18 -10 30 6 8 11 13 26
12 34 -5 24 -24 23 -41 -3z"/>
<path d="M4655 3830 c-7 -12 2 -30 16 -30 5 0 9 9 9 20 0 21 -15 27 -25 10z"/>
<path d="M4840 3713 c0 -34 1 -36 16 -21 10 10 14 23 9 37 -10 34 -25 24 -25
-16z"/>
<path d="M3775 3710 c-3 -5 3 -10 14 -10 12 0 21 5 21 10 0 6 -6 10 -14 10 -8
0 -18 -4 -21 -10z"/>
<path d="M4006 3653 c9 -37 21 -50 35 -36 8 8 6 18 -7 37 -25 33 -36 33 -28
-1z"/>
<path d="M4827 3633 c-4 -3 -6 -22 -6 -42 1 -24 3 -28 6 -13 3 12 13 28 24 35
10 6 19 15 19 19 0 10 -34 10 -43 1z"/>
<path d="M7237 3595 c-21 -19 -40 -25 -73 -25 -33 0 -46 -4 -51 -17 -4 -10
-16 -26 -28 -35 -17 -15 -17 -17 -4 -18 9 0 19 6 22 14 3 9 29 17 66 21 34 4
61 11 61 15 0 4 11 18 25 31 44 42 28 54 -18 14z"/>
<path d="M3889 3558 c0 -2 -2 -16 -4 -31 -2 -16 -8 -34 -14 -41 -7 -9 -5 -19
6 -36 l17 -24 9 34 c19 78 20 100 3 100 -9 0 -16 -1 -17 -2z"/>
<path d="M4937 3553 c-12 -11 -8 -23 8 -23 8 0 15 7 15 15 0 16 -12 20 -23 8z"/>
<path d="M2366 3508 c-27 -39 -21 -55 20 -50 33 4 35 6 32 36 -4 38 -30 46
-52 14z"/>
<path d="M4790 3454 c0 -25 -7 -46 -22 -61 -21 -23 -21 -23 -2 -38 28 -22 44
-14 59 27 15 46 6 102 -18 106 -14 3 -17 -4 -17 -34z"/>
<path d="M2481 3434 c0 -11 3 -14 6 -6 3 7 2 16 -1 19 -3 4 -6 -2 -5 -13z"/>
<path d="M3910 3402 c0 -6 5 -14 10 -17 6 -3 10 -15 10 -26 0 -10 5 -19 10
-19 17 0 11 36 -10 55 -11 10 -20 13 -20 7z"/>
<path d="M7750 3370 c0 -5 5 -10 10 -10 6 0 10 5 10 10 0 6 -4 10 -10 10 -5 0
-10 -4 -10 -10z"/>
<path d="M5680 3009 c0 -24 23 -21 28 4 2 10 -3 17 -12 17 -10 0 -16 -9 -16
-21z"/>
<path d="M6041 2964 c0 -11 3 -14 6 -6 3 7 2 16 -1 19 -3 4 -6 -2 -5 -13z"/>
<path d="M5675 2940 c-4 -6 -3 -16 3 -22 6 -6 12 -6 17 2 4 6 3 16 -3 22 -6 6
-12 6 -17 -2z"/>
<path d="M5681 2864 c0 -11 3 -14 6 -6 3 7 2 16 -1 19 -3 4 -6 -2 -5 -13z"/>
<path d="M3479 2787 l-34 -22 32 -3 c45 -4 65 8 49 30 -11 15 -15 15 -47 -5z"/>
<path d="M5286 2722 c-4 -6 1 -23 10 -37 19 -30 24 -31 24 -7 0 26 -25 58 -34
44z"/>
<path d="M3737 2697 c-11 -8 -14 -17 -8 -26 7 -11 11 -9 21 9 14 27 9 34 -13
17z"/>
<path d="M5050 2690 c0 -5 5 -10 10 -10 6 0 10 5 10 10 0 6 -4 10 -10 10 -5 0
-10 -4 -10 -10z"/>
<path d="M5271 2568 c-6 -17 -9 -34 -6 -37 11 -10 48 37 42 53 -10 25 -24 19
-36 -16z"/>
<path d="M5260 2471 c-14 -28 6 -38 31 -15 24 22 24 34 -1 34 -10 0 -24 -9
-30 -19z"/>
<path d="M5247 2414 c-4 -4 -7 -14 -7 -23 0 -11 3 -12 11 -4 6 6 10 16 7 23
-2 6 -7 8 -11 4z"/>
<path d="M4470 2230 c-9 -6 -10 -10 -3 -10 6 0 15 5 18 10 8 12 4 12 -15 0z"/>
<path d="M4439 1838 c-86 -57 -90 -59 -139 -88 -63 -37 -72 -43 -107 -67 -17
-13 -34 -23 -38 -23 -3 0 -21 -10 -38 -23 -18 -12 -41 -28 -52 -34 -11 -7 -50
-32 -88 -55 -37 -24 -79 -50 -95 -58 -15 -8 -51 -34 -80 -58 -30 -23 -57 -42
-61 -42 -4 0 -16 -8 -27 -17 -11 -10 -29 -23 -40 -30 -120 -75 -176 -110 -214
-131 -25 -13 -71 -42 -104 -63 -32 -22 -62 -39 -67 -39 -5 0 -9 -4 -9 -8 0 -4
-14 -16 -32 -26 -91 -54 -246 -213 -307 -315 -28 -46 -51 -90 -51 -98 0 -8 -7
-24 -15 -37 -34 -52 -65 -257 -58 -385 4 -77 3 -80 -28 -116 -41 -47 -113 -83
-203 -101 -39 -9 -73 -17 -75 -20 -2 -2 897 -4 1998 -4 1332 0 2000 3 1996 10
-3 6 -21 10 -38 10 -45 0 -144 26 -192 51 -22 11 -53 38 -69 61 -29 41 -29 41
-28 177 1 75 -2 147 -6 161 -5 14 -17 52 -27 85 -10 33 -22 65 -25 70 -4 6
-10 24 -14 40 -4 17 -23 53 -42 82 -19 28 -34 56 -34 62 0 6 -52 62 -115 123
-63 62 -115 117 -115 124 0 6 6 17 14 23 21 18 26 49 9 55 -9 4 -17 -1 -20
-14 -7 -25 -22 -26 -29 -2 -13 40 -61 126 -86 155 -38 42 -47 26 -12 -20 68
-89 83 -116 73 -136 -11 -20 -37 -16 -78 12 -13 9 -49 32 -79 52 -30 21 -62
42 -71 48 -46 32 -181 118 -207 131 -16 8 -45 27 -65 42 -20 15 -40 28 -44 28
-5 0 -23 11 -41 25 -18 14 -35 25 -38 25 -3 0 -32 18 -63 40 -32 22 -61 40
-65 40 -4 0 -40 22 -80 49 -40 26 -116 76 -168 111 -52 35 -111 76 -130 92
-19 15 -38 28 -43 28 -5 0 -20 9 -34 20 -14 11 -29 20 -33 20 -4 0 -36 -19
-71 -42z"/>
<path d="M5590 1551 c0 -6 5 -13 10 -16 6 -3 10 1 10 9 0 9 -4 16 -10 16 -5 0
-10 -4 -10 -9z"/>
<path d="M5705 1420 c-3 -5 1 -10 10 -10 9 0 13 5 10 10 -3 6 -8 10 -10 10 -2
0 -7 -4 -10 -10z"/>
<path d="M6155 1260 c3 -5 10 -10 16 -10 5 0 9 5 9 10 0 6 -7 10 -16 10 -8 0
-12 -4 -9 -10z"/>
<path d="M5850 1210 c0 -5 4 -10 9 -10 6 0 13 5 16 10 3 6 -1 10 -9 10 -9 0
-16 -4 -16 -10z"/>
<path d="M5805 1190 c-3 -5 -1 -10 4 -10 6 0 11 5 11 10 0 6 -2 10 -4 10 -3 0
-8 -4 -11 -10z"/>
<path d="M2117 1153 c-4 -3 -7 -26 -7 -49 0 -33 -5 -47 -22 -59 -21 -14 -21
-17 -6 -25 10 -6 19 -29 23 -59 6 -46 9 -49 33 -48 25 2 27 -1 29 -38 3 -62 9
-105 16 -112 13 -12 47 30 47 57 0 15 7 33 15 40 21 17 19 37 -5 50 -13 7 -20
21 -20 40 0 35 -19 49 -35 27 -12 -17 -36 -22 -47 -11 -4 3 0 17 8 32 8 15 14
32 14 39 0 6 6 13 13 16 10 3 10 9 0 26 -7 11 -13 29 -13 39 0 28 -28 51 -43
35z"/>
<path d="M2852 1144 c-12 -8 -22 -19 -22 -25 0 -13 22 -10 44 6 29 22 7 40
-22 19z"/>
<path d="M6036 1118 c-13 -14 -15 -23 -8 -26 7 -2 12 -12 12 -23 0 -28 19 -23
31 7 9 26 4 64 -9 64 -4 0 -16 -10 -26 -22z"/>
<path d="M2742 1108 c2 -6 12 -12 22 -14 14 -2 15 0 5 12 -14 17 -32 19 -27 2z"/>
<path d="M7506 1081 c-4 -7 -5 -15 -2 -18 9 -9 19 4 14 18 -4 11 -6 11 -12 0z"/>
<path d="M6841 1051 c-9 -16 -7 -20 14 -23 30 -6 34 -2 28 23 -7 24 -29 25
-42 0z"/>
<path d="M1520 1040 c0 -12 28 -25 36 -17 3 3 -4 10 -15 17 -15 7 -21 7 -21 0z"/>
<path d="M2010 960 c-17 -13 -20 -20 -10 -20 9 0 23 9 33 20 21 25 9 25 -23 0z"/>
<path d="M6630 960 c0 -5 5 -10 10 -10 6 0 10 5 10 10 0 6 -4 10 -10 10 -5 0
-10 -4 -10 -10z"/>
<path d="M2942 894 c1 -9 9 -19 16 -22 9 -3 13 2 10 14 -1 9 -9 19 -16 22 -9
3 -13 -2 -10 -14z"/>
<path d="M7524 836 c-8 -22 3 -33 18 -18 9 9 9 15 0 24 -9 9 -13 7 -18 -6z"/>
<path d="M6634 829 c-3 -6 -1 -16 5 -22 8 -8 11 -5 11 11 0 24 -5 28 -16 11z"/>
<path d="M2320 810 c0 -11 7 -20 15 -20 17 0 18 2 9 24 -9 23 -24 20 -24 -4z"/>
<path d="M1968 813 c6 -2 18 -2 25 0 6 3 1 5 -13 5 -14 0 -19 -2 -12 -5z"/>
<path d="M6605 769 c-4 -6 -5 -13 -2 -16 7 -7 27 6 27 18 0 12 -17 12 -25 -2z"/>
<path d="M6570 740 c0 -5 5 -10 10 -10 6 0 10 5 10 10 0 6 -4 10 -10 10 -5 0
-10 -4 -10 -10z"/>
<path d="M2660 719 c0 -13 -7 -33 -15 -43 -21 -28 -19 -56 4 -56 22 0 34 25
25 52 -3 10 -1 25 5 32 8 10 7 17 -4 26 -13 10 -15 9 -15 -11z"/>
</g>
</svg>
